<?xml version="1.0" encoding="utf-8"?>
<!-- Generator: Adobe Illustrator 21.0.0, SVG Export Plug-In . SVG Version: 6.00 Build 0)  -->
<svg version="1.1"
	 id="Capa_1" inkscape:version="0.48.5 r10040" sodipodi:docname="logodelemp.svg" xmlns:cc="http://creativecommons.org/ns#" xmlns:dc="http://purl.org/dc/elements/1.1/" xmlns:inkscape="http://www.inkscape.org/namespaces/inkscape" xmlns:rdf="http://www.w3.org/1999/02/22-rdf-syntax-ns#" xmlns:sodipodi="http://sodipodi.sourceforge.net/DTD/sodipodi-0.dtd" xmlns:svg="http://www.w3.org/2000/svg"
	 xmlns="http://www.w3.org/2000/svg" xmlns:xlink="http://www.w3.org/1999/xlink" x="0px" y="0px" viewBox="0 0 1451.7 1037.1"
	 style="enable-background:new 0 0 1451.7 1037.1;" xml:space="preserve">
<style type="text/css">
	.st0{fill:#F2F2F2;}
</style>
<sodipodi:namedview  bordercolor="#666666" borderopacity="1" gridtolerance="10" guidetolerance="10" id="namedview35" inkscape:current-layer="Capa_1" inkscape:cx="-301.27119" inkscape:cy="464.06104" inkscape:pageopacity="0" inkscape:pageshadow="2" inkscape:window-height="962" inkscape:window-maximized="1" inkscape:window-width="1280" inkscape:window-x="-8" inkscape:window-y="-8" inkscape:zoom="0.236" objecttolerance="10" pagecolor="#ffffff" showgrid="false">
	</sodipodi:namedview>
<g>
	<path id="path5" inkscape:connector-curvature="0" class="st0" d="M61.4,273.1c-21,216.9,53.7,513,151,683.2
		c396.4-107.3,746.2-106.7,1045.9,0c75.3-169.1,152.2-397,132.4-683.2c-57.2,208.7-265.3,360.8-265.3,360.8s17.5-151.6-18-228
		c-77.5,137.6-153.9,113.7-228,172c-11.7-2.2-124.1-341.6-152.7-514.1c-32.1,177.8-142.3,516.6-151,514.2
		c-75.3-57.1-155.7-39-229.1-172c-39.1,74-18,226.8-18,226.8S118,480.6,61.4,273.1z"/>
	<path id="path7" inkscape:connector-curvature="0" class="st0" d="M221.2,975.6l31.5,57.7c324.7-110.7,654.1-117.1,988.2-38.4
		l8.1-19.8C940.6,859.6,593.2,876,221.2,975.6L221.2,975.6z"/>
</g>
</svg>
